<svg xmlns="http://www.w3.org/2000/svg" viewBox="0 0 747 747"><defs><style>.cls-1,.cls-2{fill:none;}.cls-2{stroke:#f9f7ed;stroke-miterlimit:10;stroke-width:30.92px;}</style></defs><g id="Слой_2" data-name="Слой 2"><g id="Слой_2-2" data-name="Слой 2"><path class="cls-1" d="M90,0H679.42A67.58,67.58,0,0,1,747,67.58V679.42A67.58,67.58,0,0,1,679.42,747H67.58A67.58,67.58,0,0,1,0,679.42V90A90,90,0,0,1,90,0Z"/><path class="cls-2" d="M446.82,297.84c-.83,21.42-6.37,37.15-11.3,50.68C425.84,375,412,410.83,393.23,453.91H353.55c-18.8-43.08-32.62-78.87-42.29-105.39-4.93-13.53-10.48-29.26-11.3-50.68-.82-21.24,3.43-37.22,7.57-52.33,9-32.92,21.77-57.09,32.91-73.25,19.73-28.66,29-42.07,32.95-47.84,4,5.77,13.22,19.18,32.95,47.84,11.14,16.16,23.87,40.33,32.9,73.25C443.39,260.62,447.63,276.6,446.82,297.84Z"/><path class="cls-2" d="M407,453.91c1.54-15.75,7.62-54.86,38.17-84.87,7.28-7.14,20.5-19.82,41.78-25.22,9.33-2.37,27-6.85,44.93,2.36,3.32,1.71,27.05,14.42,28.37,40.47,1.28,25-19.23,40.16-20.75,41.25-2.26-3.31-13.35-18.89-31.79-20.5-9.6-.83-17,2.48-22.34,5-22.68,10.57-34.09,31.41-38.72,41.51Z"/><path class="cls-2" d="M339.74,453.91c-1.47-15.61-7.37-54.82-37.93-84.87-7.24-7.11-20.48-19.81-41.78-25.22-9.33-2.37-27-6.85-44.93,2.36-3.32,1.71-27,14.42-28.37,40.47-1.28,25,19.23,40.16,20.75,41.25,2.26-3.31,13.35-18.89,31.79-20.5,9.6-.83,17,2.48,22.34,5,22.68,10.57,34.09,31.41,38.72,41.51Z"/><path class="cls-2" d="M355.57,541.83h34.7l13.41,42.85a68.19,68.19,0,0,1-30.57,37.9,72.17,72.17,0,0,1-30.56-38.51Z"/><path class="cls-2" d="M406,541.89h39.41a34.53,34.53,0,0,0,6.79,13.8c10.65,13,27.4,13.16,30.13,13.14-.92,2-11.34,24.12-29.78,26.28C432.66,597.43,407.9,576.09,406,541.89Z"/><path class="cls-2" d="M341,541.89H301.62a34.53,34.53,0,0,1-6.79,13.8c-10.65,13-27.4,13.16-30.13,13.14.92,2,11.34,24.12,29.78,26.28C314.34,597.43,339.1,576.09,341,541.89Z"/><path class="cls-2" d="M456.35,498.63c.2,1.19-1.37,2.06-2,2.36H292.64c-.62-.3-2.19-1.17-2-2.36.15-.95,1.36-1.64,2-1.95H454.36C455,497,456.19,497.68,456.35,498.63Z"/></g></g></svg>