<svg xmlns="http://www.w3.org/2000/svg" viewBox="0 0 747 747"><defs><style>.cls-1{fill:none;}.cls-2,.cls-3{fill:#f9f7ed;}.cls-2{stroke:#f9f7ed;stroke-miterlimit:10;stroke-width:0.98px;}</style></defs><g id="Слой_2" data-name="Слой 2"><g id="Слой_2-2" data-name="Слой 2"><path class="cls-1" d="M90,0H679.42A67.58,67.58,0,0,1,747,67.58V679.42A67.58,67.58,0,0,1,679.42,747H67.58A67.58,67.58,0,0,1,0,679.42V90A90,90,0,0,1,90,0Z"/><circle class="cls-2" cx="373.72" cy="376.48" r="39.42"/><path class="cls-2" d="M343.78,305.05c2.78-13.59,13.64-23.67,26.08-24.89,15.22-1.5,30.42,10.49,32.6,27.86,9.85-4.75,35.62-18.84,48.61-48.61,9.2-21.08,15.62-58.39-1.19-68.16-11.49-6.69-31,1.19-48,15.41,2.31-4.63,14-29.17,3-53.94-1.74-3.89-13.41-28.86-32.61-28.45-17.49.37-28,21.52-29.63,24.9-13.56,27.38,2.42,56.91,4.74,61.05-2.42-1.51-42.1-25.82-56.9-13-13.9,12,.57,51.12,16.59,74.09A118,118,0,0,0,343.78,305.05Z"/><path class="cls-2" d="M344.92,442c2.78,13.59,13.64,23.67,26.08,24.89,15.22,1.5,30.41-10.49,32.6-27.86,9.84,4.75,35.62,18.84,48.6,48.61,9.2,21.08,15.63,58.39-1.18,68.16-11.5,6.69-31-1.19-48-15.41,2.31,4.63,14,29.17,3,53.94-1.73,3.89-13.4,28.86-32.6,28.45-17.49-.37-28-21.52-29.64-24.9-13.56-27.38,2.42-56.91,4.75-61.05-2.42,1.51-42.1,25.82-56.91,13-13.89-12,.58-51.12,16.6-74.09A118,118,0,0,1,344.92,442Z"/><path class="cls-2" d="M440.48,347.68c13.59,2.78,23.67,13.64,24.89,26.08,1.5,15.22-10.49,30.41-27.86,32.6,4.75,9.84,18.84,35.62,48.61,48.61,21.08,9.19,58.39,15.62,68.16-1.19,6.68-11.5-1.19-31-15.41-48,4.63,2.31,29.17,14,53.94,3,3.89-1.73,28.86-13.4,28.45-32.6-.37-17.49-21.52-28-24.9-29.63-27.38-13.57-56.91,2.42-61.05,4.74,1.51-2.42,25.82-42.1,13-56.9-12-13.9-51.12.57-74.09,16.59A118,118,0,0,0,440.48,347.68Z"/><path class="cls-2" d="M306.52,405.29c-13.59-2.78-23.67-13.64-24.89-26.08-1.5-15.22,10.49-30.41,27.86-32.6-4.75-9.85-18.84-35.62-48.61-48.61-21.08-9.19-58.39-15.62-68.16,1.19-6.68,11.5,1.19,31,15.41,48-4.63-2.31-29.17-14-53.94-3-3.89,1.73-28.86,13.4-28.45,32.6.37,17.49,21.52,28,24.9,29.63,27.38,13.56,56.91-2.42,61.05-4.74-1.51,2.42-25.82,42.1-13,56.9,12,13.9,51.12-.57,74.09-16.59A118,118,0,0,0,306.52,405.29Z"/><path class="cls-2" d="M259.51,264c-10.21-19.64-20.5-47.11-9-67.67,8.7-15.6,26-20.19,24.24-25.94-2.08-6.79-29.43-10.69-46.23,3.39C216.34,184,211.67,202,216.09,220c-2.05-.29-32.84-4.15-47.93,16.35-10.88,14.78-9.86,37.17-3.95,39.47,5.5,2.14,11.51-14.51,27.07-22.56C211.27,243,237.24,251.9,259.51,264Z"/><path class="cls-2" d="M259.51,489c-10.21,19.64-20.5,47.1-9,67.67,8.7,15.59,26,20.19,24.24,25.93-2.08,6.8-29.43,10.7-46.23-3.38-12.16-10.19-16.83-28.15-12.41-46.24-2.05.29-32.84,4.15-47.93-16.35-10.88-14.78-9.86-37.17-3.95-39.47,5.5-2.14,11.51,14.51,27.07,22.55C211.27,510.06,237.24,501.14,259.51,489Z"/><path class="cls-2" d="M487.06,264c10.21-19.64,20.5-47.11,9-67.67-8.71-15.6-26-20.19-24.25-25.94,2.09-6.79,29.44-10.69,46.24,3.39C530.24,184,534.9,202,530.48,220c2-.29,32.85-4.15,47.93,16.35,10.88,14.78,9.86,37.17,4,39.47-5.49,2.14-11.5-14.51-27.07-22.56C535.31,243,509.33,251.9,487.06,264Z"/><path class="cls-2" d="M487.06,490.37c10.21,19.64,20.5,47.11,9,67.67-8.71,15.6-26,20.19-24.25,25.94,2.09,6.79,29.44,10.69,46.24-3.39,12.16-10.19,16.82-28.15,12.4-46.24,2,.29,32.85,4.15,47.93-16.35,10.88-14.78,9.86-37.17,4-39.47-5.49-2.14-11.5,14.51-27.07,22.55C535.31,511.41,509.33,502.49,487.06,490.37Z"/><path class="cls-3" d="M373.5,101.88a270.7,270.7,0,1,1-105.72,21.34A269.85,269.85,0,0,1,373.5,101.88m0-25.38c-164,0-297,133-297,297s133,297,297,297,297-133,297-297-133-297-297-297Z"/></g></g></svg>