<svg xmlns="http://www.w3.org/2000/svg" viewBox="0 0 748 748"><defs><style>.cls-1,.cls-4,.cls-5{fill:none;stroke:#f9f7ed;stroke-miterlimit:10;}.cls-2{fill:#cbbba0;}.cls-3{fill:#f9f7ed;}.cls-4{stroke-width:33.17px;}.cls-5{stroke-width:24.88px;}</style></defs><g id="Слой_2" data-name="Слой 2"><g id="Слой_2-2" data-name="Слой 2"><rect class="cls-1" x="0.5" y="0.5" width="747" height="747" rx="90"/><path class="cls-2" d="M373.09,485.55Z"/><path class="cls-3" d="M373.09,485.55Z"/><path class="cls-2" d="M373.09,485.55Z"/><path class="cls-3" d="M373.09,485.55Z"/><polygon class="cls-4" points="225.56 583.39 375.95 121.05 522.44 583.39 133.96 299.89 614.04 299.89 225.56 583.39"/><path class="cls-5" d="M218.43,295.51a179.3,179.3,0,0,1,126.89-89.87"/><path class="cls-5" d="M248.28,508.76a179.45,179.45,0,0,1-49.77-156.31"/><path class="cls-5" d="M462,539.06a179.43,179.43,0,0,1-173.59,0"/><path class="cls-5" d="M550.43,345a179.52,179.52,0,0,1-48.8,164.22"/><path class="cls-5" d="M405,205.64a179.32,179.32,0,0,1,129.4,94.56"/></g></g></svg>