<svg xmlns="http://www.w3.org/2000/svg" viewBox="0 0 747 747"><defs><style>.cls-1{fill:none;}.cls-2,.cls-3{fill:#f9f7ed;}.cls-3{stroke:#f9f7ed;stroke-miterlimit:10;}</style></defs><g id="Слой_2" data-name="Слой 2"><g id="Слой_2-2" data-name="Слой 2"><path class="cls-1" d="M90,0H679.42A67.58,67.58,0,0,1,747,67.58V679.42A67.58,67.58,0,0,1,679.42,747H67.58A67.58,67.58,0,0,1,0,679.42V90A90,90,0,0,1,90,0Z"/><path class="cls-2" d="M373.57,78.8V104a269.52,269.52,0,1,1-82.68,526,270.93,270.93,0,0,1-74-37.21A269.57,269.57,0,0,1,373.56,104V78.8m0,0a294.4,294.4,0,0,0-91.78,14.72C127.14,144.18,42.86,310.6,93.52,465.23c40.68,124.17,156,203,279.93,203a294.4,294.4,0,0,0,91.78-14.72C619.86,602.82,704.14,436.4,653.48,281.77c-40.68-124.17-156-203-279.93-203Z"/><path class="cls-3" d="M617.19,345.22A265.26,265.26,0,0,1,605,430.88L555.9,468.14l37.88-9.75a278.81,278.81,0,0,1-53.5,77,91.36,91.36,0,0,0-16.07-65.08c4.5-3.45,10.55-8.35,17.32-14.63a252.69,252.69,0,0,0,30.71-34.45C594.64,391.71,610.72,359,617.19,345.22Z"/><path class="cls-3" d="M234.46,564.45l85.21-59.33,128,32.06L360.29,474l98.49-77.18-6.18-3.13q-87.21,46.76-174.41,93.52,27-96.66,54.05-193.31l-10.84-1.61Z"/><path class="cls-3" d="M147,301.33l82.92,62.49q4.71,65.81,9.41,131.6,16.4-51.35,32.8-102.69,49,32,98,64.09l3.14-6.19L234,318.83l199.74-13.37,3.83-4.8Z"/><path class="cls-3" d="M371.35,137.37q-17.42,48.91-34.81,97.83L213.79,283.57l107.8.55L283.67,397.49,296,403.75q42.33-89.07,84.65-178.12l72.54,186.58,9.8.05Z"/><path class="cls-3" d="M597,300.5,493.2,298.09Q451,247.37,408.82,196.67l33.24,102.55-124-1,3,9.32,195,29.51L360.83,459.87l3.05,9.31Z"/><path class="cls-3" d="M512.22,565l-29.17-99.65,71.07-111.16-87.65,62.76-38.2-113.2L419,306.76q17,96.09,33.95,192.19L285.28,386.65l-3.13,6.18Z"/><path class="cls-3" d="M480.59,603.57a265,265,0,0,1-85.33,14.31l-50.37-35.52q10.37,16.59,20.75,33.16A278.54,278.54,0,0,1,276,587.84a91.32,91.32,0,0,0,57.17-35c4.65,3.24,11.14,7.53,19.19,12.08a252.62,252.62,0,0,0,42.12,18.84C429.46,596.15,465.5,601.58,480.59,603.57Z"/><path class="cls-3" d="M193.24,539.9a264.38,264.38,0,0,1-40.6-76.41l17.72-59-24.88,30.19a279.24,279.24,0,0,1-2.13-93.77A91.32,91.32,0,0,0,194.67,384c-1.6,5.44-3.61,13-5.38,22A251.86,251.86,0,0,0,184.77,452C184.08,489.05,190.35,525,193.24,539.9Z"/><path class="cls-3" d="M158.5,255.35a265,265,0,0,1,59.57-62.74l61.6-1.93-36.52-14a279.31,279.31,0,0,1,88.24-31.78,91.45,91.45,0,0,0-24.62,62.36c-5.66.21-13.43.69-22.59,1.89a251.33,251.33,0,0,0-45,10.29C203.81,230.53,171.75,247.87,158.5,255.35Z"/><path class="cls-3" d="M422.5,133.12a265.24,265.24,0,0,1,77.6,38.26l20.12,58.25q1.28-19.51,2.54-39a278.87,278.87,0,0,1,56.54,74.83,91.37,91.37,0,0,0-66.85-5c-1.88-5.35-4.65-12.62-8.51-21a252.79,252.79,0,0,0-23.18-39.9C459.65,169,433.58,143.56,422.5,133.12Z"/><path class="cls-3" d="M373.92,335.87c-23.72-1.8-46.36,14.05-53.3,38.19,10.66,19.68,31.61,31.38,53.3,29.8,30.05-2.2,44.48-28.62,45.33-30.22C413.14,352.54,394.89,337.45,373.92,335.87Zm-4,56.66c-8.34,0-15.11-10.15-15.11-22.67s6.77-22.66,15.11-22.66S385,357.35,385,369.86,378.28,392.53,369.93,392.53Z"/></g></g></svg>