<svg width="120" height="120" viewBox="0 0 120 120" fill="none" xmlns="http://www.w3.org/2000/svg">
<path d="M63.7912 14.6086L101.998 42.3676C103.762 43.6494 104.3 44.0705 104.618 44.5651C104.945 45.0734 105.135 45.6577 105.169 46.2612C105.203 46.8483 105.015 47.505 104.341 49.5789L89.7476 94.494C89.0737 96.5679 88.8393 97.2094 88.4673 97.6648C88.085 98.133 87.5879 98.4941 87.0245 98.7131C86.4764 98.9262 85.7939 98.9509 83.6133 98.9509H36.3867C34.2061 98.9509 33.5236 98.9262 32.9755 98.7131C32.4121 98.4941 31.915 98.133 31.5327 97.6648C31.1607 97.2094 30.9263 96.5679 30.2524 94.494L15.6586 49.5789C14.9848 47.505 14.7974 46.8483 14.8306 46.2612C14.8648 45.6577 15.0546 45.0734 15.3817 44.5651C15.6999 44.0705 16.2376 43.6494 18.0017 42.3676L56.2088 14.6086C57.973 13.3268 58.5396 12.9457 59.1083 12.7958C59.6928 12.6418 60.3072 12.6418 60.8917 12.7958C61.4604 12.9457 62.027 13.3268 63.7912 14.6086Z" fill="#5C5C5C" stroke="black" stroke-width="3"/>
</svg>
