<svg width="120" height="120" viewBox="0 0 120 120" fill="none" xmlns="http://www.w3.org/2000/svg">
<path d="M65.5859 32.675L95.1173 83.825C96.2494 85.7858 97.0461 87.1686 97.5509 88.259C98.059 89.3565 98.1623 89.9395 98.1255 90.3294C98.0297 91.3424 97.4979 92.2635 96.6685 92.853C96.3493 93.0798 95.7928 93.2818 94.5882 93.3905C93.3915 93.4985 91.7956 93.5 89.5315 93.5H30.4685C28.2044 93.5 26.6085 93.4985 25.4118 93.3905C24.2072 93.2818 23.6507 93.0798 23.3315 92.853C22.5021 92.2635 21.9703 91.3424 21.8745 90.3294C21.8377 89.9395 21.941 89.3565 22.4491 88.259C22.9539 87.1686 23.7506 85.7858 24.8827 83.825L54.4141 32.675C55.5462 30.7142 56.3454 29.3329 57.0373 28.3505C57.7337 27.3617 58.187 26.9807 58.543 26.8177C59.4682 26.3941 60.5318 26.3941 61.457 26.8177C61.813 26.9807 62.2663 27.3617 62.9627 28.3505C63.6546 29.3329 64.4538 30.7142 65.5859 32.675Z" fill="#5C5C5C" stroke="black" stroke-width="3"/>
</svg>
