<svg width="120" height="125" viewBox="0 0 120 125" fill="none" xmlns="http://www.w3.org/2000/svg">
<path d="M65.5859 19.675L102.912 84.325C104.044 86.2858 104.84 87.6686 105.345 88.7589C105.853 89.8565 105.957 90.4395 105.92 90.8294C105.824 91.8424 105.292 92.7635 104.463 93.353C104.144 93.5798 103.587 93.7818 102.382 93.8905C101.186 93.9985 99.5898 94 97.3257 94H22.6743C20.4102 94 18.8143 93.9985 17.6176 93.8905C16.413 93.7818 15.8565 93.5798 15.5373 93.353C14.7079 92.7635 14.176 91.8424 14.0803 90.8294C14.0434 90.4395 14.1468 89.8565 14.6549 88.759C15.1597 87.6686 15.9564 86.2858 17.0884 84.325L54.4141 19.675C55.5462 17.7142 56.3454 16.3329 57.0373 15.3505C57.7337 14.3617 58.187 13.9807 58.543 13.8177C59.4682 13.3941 60.5318 13.3941 61.457 13.8177C61.813 13.9807 62.2663 14.3617 62.9627 15.3505C63.6546 16.3329 64.4538 17.7142 65.5859 19.675Z" fill="#5C5C5C" stroke="black" stroke-width="3"/>
</svg>
