<svg width="120" height="120" viewBox="0 0 120 120" fill="none" xmlns="http://www.w3.org/2000/svg">
<path d="M63.225 13.594L98.5763 34.0041C100.095 34.881 100.561 35.1692 100.89 35.5312C101.228 35.9031 101.483 36.3436 101.636 36.8226C101.784 37.289 101.801 37.8361 101.801 39.5899V80.4101C101.801 82.1639 101.784 82.711 101.636 83.1774C101.483 83.6564 101.228 84.0969 100.89 84.4688C100.561 84.8308 100.095 85.119 98.5763 85.9959L63.225 106.406C61.7061 107.283 61.2239 107.542 60.7456 107.646C60.2543 107.753 59.7457 107.753 59.2544 107.646C58.7761 107.542 58.2939 107.283 56.775 106.406L21.4237 85.9959C19.9048 85.119 19.4395 84.8308 19.11 84.4688C18.7716 84.0969 18.5173 83.6564 18.3644 83.1774C18.2156 82.711 18.1987 82.1639 18.1987 80.4101L18.1987 39.5899C18.1987 37.8361 18.2156 37.289 18.3644 36.8226C18.5173 36.3436 18.7716 35.9031 19.11 35.5312C19.4395 35.1692 19.9048 34.881 21.4237 34.0041L56.775 13.594C58.2939 12.7171 58.7761 12.4581 59.2544 12.3538C59.7457 12.2467 60.2543 12.2467 60.7456 12.3538C61.2239 12.4581 61.7061 12.7171 63.225 13.594Z" fill="#5C5C5C" stroke="black" stroke-width="3"/>
</svg>
