<svg width="120" height="120" viewBox="0 0 120 120" fill="none" xmlns="http://www.w3.org/2000/svg">
<path d="M64.6052 14.3322L101.155 44.4921C102.268 45.4104 102.607 45.7055 102.846 46.0401C103.092 46.3837 103.274 46.769 103.382 47.1773C103.488 47.5749 103.5 48.0242 103.5 49.4671V70.5329C103.5 71.9757 103.488 72.4251 103.382 72.8227C103.274 73.231 103.092 73.6163 102.846 73.9599C102.607 74.2945 102.268 74.5896 101.155 75.5079L64.6052 105.668C63.6972 106.417 63.0776 106.927 62.5634 107.292C62.0643 107.645 61.7489 107.799 61.4769 107.878C60.8388 108.064 60.1612 108.064 59.5231 107.878C59.2511 107.799 58.9357 107.645 58.4366 107.292C57.9224 106.927 57.3028 106.417 56.3948 105.668L19.8448 75.5079C18.732 74.5896 18.3929 74.2945 18.1535 73.9599C17.9077 73.6163 17.7261 73.231 17.6175 72.8227C17.5118 72.4251 17.5 71.9757 17.5 70.5329V49.4671C17.5 48.0242 17.5118 47.5749 17.6175 47.1773C17.7261 46.769 17.9077 46.3837 18.1535 46.0401C18.3929 45.7055 18.732 45.4104 19.8448 44.4921L56.3948 14.3322C57.3028 13.583 57.9224 13.0729 58.4366 12.7084C58.9357 12.3546 59.2511 12.2006 59.5231 12.1216C60.1612 11.9361 60.8388 11.9361 61.4769 12.1216C61.7489 12.2006 62.0643 12.3546 62.5634 12.7084C63.0776 13.0729 63.6972 13.583 64.6052 14.3322Z" fill="#5C5C5C" stroke="black" stroke-width="3"/>
</svg>
